# This file uses centimeters as units for non-parametric coordinates.

mtllib HEALTH-HEART.mtl
g default
v 0.000000 -0.000000 0.608636
v 1.333557 0.376292 1.096000
v 0.000000 -0.254802 0.006907
v 1.524380 -0.000000 0.006907
v 0.000000 0.000000 -1.982679
v 0.961038 0.385172 -1.179560
v 0.000000 0.770346 0.608636
v 0.000000 1.025148 0.006907
v 1.333557 0.376294 1.096000
v 1.524380 0.770346 0.006907
v 0.000000 0.770346 -1.982679
v 0.961038 0.385173 -1.179560
v 0.747671 -0.129828 0.006907
v 0.536595 0.188917 1.192593
v 0.536595 0.581428 1.192593
v 0.747671 0.900174 0.006907
v 0.471365 0.581428 -1.588769
v 0.471365 0.188917 -1.588769
v -1.333557 0.376292 1.096000
v -1.524380 -0.000000 0.006907
v -0.961038 0.385172 -1.179560
v -1.333557 0.376294 1.096000
v -1.524380 0.770346 0.006907
v -0.961038 0.385173 -1.179560
v -0.747671 -0.129828 0.006907
v -0.536595 0.188917 1.192593
v -0.536595 0.581428 1.192593
v -0.747671 0.900174 0.006907
v -0.471365 0.581428 -1.588769
v -0.471365 0.188917 -1.588769
vt 0.500000 0.400000
vt 0.600000 0.400000
vt 0.500000 0.500000
vt 0.600000 0.500000
vt 0.500000 0.600000
vt 0.600000 0.600000
vt 0.500000 0.400000
vt 0.500000 0.500000
vt 0.600000 0.400000
vt 0.600000 0.500000
vt 0.500000 0.600000
vt 0.600000 0.600000
vt 0.500000 0.400000
vt 0.600000 0.400000
vt 0.600000 0.500000
vt 0.500000 0.600000
vt 0.600000 0.600000
vt 0.549047 0.500000
vt 0.549047 0.400000
vt 0.549047 0.400000
vt 0.549047 0.400000
vt 0.549047 0.500000
vt 0.549047 0.600000
vt 0.549047 0.600000
vt 0.549047 0.600000
vt 0.500000 0.400000
vt 0.549047 0.400000
vt 0.549047 0.500000
vt 0.500000 0.500000
vt 0.549047 0.600000
vt 0.500000 0.600000
vt 0.500000 0.400000
vt 0.500000 0.500000
vt 0.549047 0.500000
vt 0.549047 0.400000
vt 0.500000 0.600000
vt 0.549047 0.600000
vt 0.500000 0.400000
vt 0.549047 0.400000
vt 0.600000 0.400000
vt 0.600000 0.500000
vt 0.600000 0.500000
vt 0.600000 0.400000
vt 0.600000 0.600000
vt 0.600000 0.600000
vt 0.549047 0.600000
vt 0.500000 0.600000
vt 0.600000 0.500000
vt 0.600000 0.400000
vt 0.600000 0.600000
vn 0.000000 0.949085 0.315021
vn 0.177541 0.929520 0.323221
vn 0.262057 0.965019 0.008061
vn 0.000000 1.000000 -0.000837
vn 0.306405 0.928890 -0.208038
vn 0.297686 0.938834 -0.173131
vn 0.000000 -0.949085 0.315021
vn 0.000000 -1.000000 -0.000837
vn 0.259008 -0.965860 0.005338
vn 0.170354 -0.932686 0.317925
vn 0.297686 -0.938834 -0.173131
vn 0.306405 -0.928890 -0.208038
vn -0.736336 0.000000 0.676616
vn -0.605037 0.000000 0.796198
vn -0.606918 0.000000 0.794764
vn -0.736336 0.000000 0.676616
vn 0.984995 0.000000 0.172584
vn 0.984995 0.000000 0.172584
vn 0.984995 0.000000 0.172584
vn 0.984995 0.000000 0.172584
vn 0.903345 0.000000 -0.428914
vn 0.903345 0.000000 -0.428914
vn 0.903345 0.000000 -0.428914
vn 0.903345 0.000000 -0.428914
vn 0.641246 0.000000 -0.767336
vn 0.641246 0.000000 -0.767336
vn 0.641246 0.000000 -0.767336
vn 0.641246 0.000000 -0.767336
vn 0.276349 -0.960183 0.040989
vn 0.206048 -0.925068 0.319050
vn 0.120320 0.000000 0.992735
vn 0.120320 0.000000 0.992735
vn 0.215911 0.920210 0.326492
vn 0.282264 0.958199 0.046717
vn 0.332831 0.885407 -0.324467
vn 0.641245 0.000000 -0.767336
vn 0.641245 0.000000 -0.767336
vn 0.332831 -0.885407 -0.324467
vn -0.262057 0.965019 0.008061
vn -0.177541 0.929520 0.323221
vn -0.297686 0.938834 -0.173131
vn -0.306405 0.928890 -0.208038
vn -0.170354 -0.932686 0.317925
vn -0.259008 -0.965861 0.005338
vn -0.306405 -0.928890 -0.208038
vn -0.297686 -0.938834 -0.173131
vn 0.736336 0.000000 0.676616
vn 0.736336 0.000000 0.676616
vn 0.606918 0.000000 0.794764
vn 0.605037 0.000000 0.796198
vn -0.984995 0.000000 0.172584
vn -0.984995 0.000000 0.172584
vn -0.984995 0.000000 0.172584
vn -0.984995 0.000000 0.172584
vn -0.903345 0.000000 -0.428914
vn -0.903345 0.000000 -0.428914
vn -0.903345 0.000000 -0.428914
vn -0.903345 0.000000 -0.428914
vn -0.641246 0.000000 -0.767336
vn -0.641246 0.000000 -0.767336
vn -0.641246 0.000000 -0.767336
vn -0.641246 0.000000 -0.767336
vn -0.206048 -0.925068 0.319050
vn -0.276349 -0.960183 0.040989
vn -0.120320 0.000000 0.992735
vn -0.120320 0.000000 0.992735
vn -0.282264 0.958199 0.046717
vn -0.215911 0.920209 0.326492
vn -0.332831 0.885407 -0.324467
vn -0.641245 0.000000 -0.767336
vn -0.641245 0.000000 -0.767336
vn -0.332831 -0.885407 -0.324467
s 1
g pPlane1
usemtl initialShadingGroup
f 7/13/1 15/21/2 16/22/3 8/3/4
f 8/3/4 16/22/3 17/23/5 11/16/6
s 2
f 1/7/7 3/8/8 13/18/9 14/20/10
f 3/8/8 5/11/11 18/24/12 13/18/9
s 3
f 1/1/13 14/19/14 15/21/15 7/13/16
s off
f 2/2/17 4/4/18 10/15/19 9/14/20
f 4/4/21 6/6/22 12/17/23 10/15/24
s 4
f 18/25/25 5/5/26 11/16/27 17/23/28
s 2
f 14/20/10 13/18/9 4/10/29 2/9/30
s 3
f 15/21/15 14/19/14 2/2/31 9/14/32
s 1
f 16/22/3 15/21/2 9/14/33 10/15/34
f 17/23/5 16/22/3 10/15/34 12/17/35
s 4
f 6/6/36 18/25/25 17/23/28 12/17/37
s 2
f 13/18/9 18/24/12 6/12/38 4/10/29
s 1
f 7/26/1 8/29/4 28/28/39 27/27/40
f 8/29/4 11/31/41 29/30/42 28/28/39
s 2
f 1/32/7 26/35/43 25/34/44 3/33/8
f 3/33/8 25/34/44 30/37/45 5/36/46
s 5
f 1/38/47 7/26/48 27/27/49 26/39/50
s off
f 19/40/51 22/43/52 23/42/53 20/41/54
f 20/41/55 23/42/56 24/45/57 21/44/58
s 6
f 30/46/59 29/30/60 11/31/61 5/47/62
s 2
f 26/35/43 19/49/63 20/48/64 25/34/44
s 5
f 27/27/49 22/43/65 19/40/66 26/39/50
s 1
f 28/28/39 23/42/67 22/43/68 27/27/40
f 29/30/42 24/45/69 23/42/67 28/28/39
s 6
f 21/44/70 24/45/71 29/30/60 30/46/59
s 2
f 25/34/44 20/48/64 21/50/72 30/37/45
